<?xml version="1.0" encoding="utf-8"?>
<!-- Generator: Adobe Illustrator 26.0.3, SVG Export Plug-In . SVG Version: 6.00 Build 0)  -->
<svg version="1.1" id="Layer_1" xmlns="http://www.w3.org/2000/svg" xmlns:xlink="http://www.w3.org/1999/xlink" x="0px" y="0px"
	 viewBox="0 0 1920 1080" style="enable-background:new 0 0 1920 1080;" xml:space="preserve">
<style type="text/css">
	.st0{opacity:0.43;fill:#29ABE2;stroke:#000000;stroke-miterlimit:10;}
	.st1{fill:#29ABE2;stroke:#000000;stroke-miterlimit:10;}
	.st2{display:none;fill:#29ABE2;stroke:#000000;stroke-miterlimit:10;}
</style>
<rect x="198.5" y="-16.5" class="st0" width="429" height="1112"/>
<path class="st1" d="M881.5,1082.5h-448c92.5-89.3,128-179,143-231c46.2-159.5-1.2-306.5-24-377c-38.4-119.1-77.5-144.3-104-269
	c-18-84.5-17.9-156.9-15-205c149.3,0,298.7,0,448,0c36.1,160.3,30.8,286.8,19,373c-24.5,179.5-86.9,260.2-84,428
	C818.6,921.9,853.1,1019.4,881.5,1082.5z"/>
<path class="st1" d="M245.5,1081.5h-248V-4.5c96.7,0.7,193.3,1.3,290,2c1.7,52.9,8.4,131.6,33,223c30.8,114.2,59,135,90,231
	c22.7,70.3,73.8,228.8,17,392C411.5,889.5,367.7,991.2,245.5,1081.5z"/>
<path class="st2" d="M1571.5,1084.5h-420c-47.2-57.9-109.5-152.1-124-276c-16.5-140.7,43.4-221,75-388c17.8-94.3,30.6-235.5-5-419
	c158,1,316,2,474,3c-3.1,109.2-19.1,246.2-69,396c-51.5,154.3-102.4,212.4-104,322C1397.2,808.8,1426.5,932.5,1571.5,1084.5z"/>
<path class="st2" d="M1922.5,1079.5h-199c-63.3-75.4-138.4-190.9-137-332c1.2-125.9,62.5-187.7,107-351c23.8-87.5,47.3-220.4,30-397
	c66.3,0,132.7,0,199,0V1079.5z"/>
</svg>
